<svg xmlns="http://www.w3.org/2000/svg" viewBox="0 0 960 1200" role="img" aria-label="Electrodynamic apparatus diagram">
  <defs>
    <linearGradient id="panel" x1="0" x2="1" y1="0" y2="1">
      <stop offset="0" stop-color="#111821"/>
      <stop offset="1" stop-color="#05070a"/>
    </linearGradient>
    <radialGradient id="glow" cx="50%" cy="45%" r="58%">
      <stop offset="0" stop-color="#7fd7ff" stop-opacity=".58"/>
      <stop offset=".35" stop-color="#45a7d6" stop-opacity=".2"/>
      <stop offset="1" stop-color="#45a7d6" stop-opacity="0"/>
    </radialGradient>
  </defs>
  <rect width="960" height="1200" fill="url(#panel)"/>
  <path d="M0 120h960M0 240h960M0 360h960M0 480h960M0 600h960M0 720h960M0 840h960M0 960h960M0 1080h960M120 0v1200M240 0v1200M360 0v1200M480 0v1200M600 0v1200M720 0v1200M840 0v1200" stroke="#ccdde8" stroke-opacity=".08"/>
  <ellipse cx="480" cy="560" rx="355" ry="430" fill="url(#glow)"/>
  <g fill="none" stroke-linecap="square">
    <path d="M480 180v840" stroke="#eff5f8" stroke-opacity=".22" stroke-width="2" stroke-dasharray="10 14"/>
    <path d="M122 600h716" stroke="#eff5f8" stroke-opacity=".22" stroke-width="2" stroke-dasharray="10 14"/>
    <path d="M116 600c108-202 229-303 364-303s256 101 364 303c-108 202-229 303-364 303s-256-101-364-303z" stroke="#7fd7ff" stroke-width="4" stroke-opacity=".82"/>
    <path d="M192 600c84-148 180-222 288-222s204 74 288 222c-84 148-180 222-288 222s-204-74-288-222z" stroke="#45a7d6" stroke-width="3" stroke-opacity=".86"/>
    <path d="M270 600c60-91 130-136 210-136s150 45 210 136c-60 91-130 136-210 136s-150-45-210-136z" stroke="#d89245" stroke-width="3" stroke-opacity=".86"/>
    <path d="M480 245c-93 106-140 224-140 355s47 249 140 355" stroke="#ccdde8" stroke-opacity=".26" stroke-width="2"/>
    <path d="M480 245c93 106 140 224 140 355s-47 249-140 355" stroke="#ccdde8" stroke-opacity=".26" stroke-width="2"/>
  </g>
  <g>
    <rect x="381" y="537" width="198" height="126" fill="#05070a" stroke="#eff5f8" stroke-opacity=".45" stroke-width="2"/>
    <circle cx="480" cy="600" r="42" fill="none" stroke="#7fd7ff" stroke-width="4"/>
    <circle cx="480" cy="600" r="10" fill="#d89245"/>
    <path d="M381 568H258M579 568h123M381 632H258M579 632h123" stroke="#eff5f8" stroke-opacity=".72" stroke-width="4"/>
    <circle cx="258" cy="568" r="9" fill="#d89245"/>
    <circle cx="702" cy="568" r="9" fill="#d89245"/>
    <circle cx="258" cy="632" r="9" fill="#d89245"/>
    <circle cx="702" cy="632" r="9" fill="#d89245"/>
  </g>
  <g font-family="IBM Plex Mono, Consolas, monospace" font-size="24" fill="#9aa8b4">
    <text x="64" y="82">IAE / ELECTRODYNAMIC APPARATUS STUDY</text>
    <text x="64" y="1140">POTENTIAL / FIELD / RESONANCE / MEASUREMENT</text>
  </g>
</svg>
