<svg xmlns="http://www.w3.org/2000/svg" viewBox="0 0 640 800" role="img" aria-labelledby="title desc">
  <title id="title">Khae Mostajo technical profile plate</title>
  <desc id="desc">A scientific identification graphic with a KM monogram, field lines, and engineering coordinates.</desc>
  <rect width="640" height="800" fill="#080b10"/>
  <g stroke="#17232d" stroke-width="1">
    <path d="M0 80h640M0 160h640M0 240h640M0 320h640M0 400h640M0 480h640M0 560h640M0 640h640M0 720h640"/>
    <path d="M80 0v800M160 0v800M240 0v800M320 0v800M400 0v800M480 0v800M560 0v800"/>
  </g>
  <g fill="none" stroke="#45a7d6" opacity=".55">
    <ellipse cx="320" cy="386" rx="212" ry="270"/>
    <ellipse cx="320" cy="386" rx="158" ry="218"/>
    <path d="M88 388h464M320 96v580" stroke-dasharray="8 10"/>
    <path d="M132 248c112 56 264 56 376 0M132 524c112-56 264-56 376 0"/>
  </g>
  <circle cx="320" cy="386" r="116" fill="#0e161d" stroke="#d89245" stroke-width="2"/>
  <text x="320" y="410" fill="#eff5f8" font-family="Georgia, serif" font-size="104" text-anchor="middle">KM</text>
  <g fill="#7fd7ff" font-family="monospace" font-size="15">
    <text x="36" y="44">IAE / SCIENTIST 01</text>
    <text x="36" y="764">ELECTROMECHANICAL ENGINEERING</text>
    <text x="430" y="764">FIELD / APPARATUS</text>
  </g>
  <g fill="#d89245">
    <circle cx="320" cy="96" r="5"/><circle cx="320" cy="676" r="5"/>
    <circle cx="108" cy="386" r="5"/><circle cx="532" cy="386" r="5"/>
  </g>
</svg>
